<svg xmlns="http://www.w3.org/2000/svg" viewBox="0 0 3168 624" fill="none" role="img" aria-label="CrystalDent — Viena Dental Clinic"><path d="M134.50,596.10 C127.88,594.78 116.00,583.79 116.00,578.98 C116.00,578.03 115.35,576.70 114.55,576.04 C113.75,575.38 112.59,573.30 111.97,571.42 C111.35,569.54 110.50,568.00 110.07,568.00 C109.65,568.00 108.58,566.31 107.69,564.25 C106.80,562.19 105.65,559.83 105.14,559.00 C104.63,558.17 103.71,556.38 103.09,555.00 C102.47,553.62 100.89,550.70 99.59,548.50 C98.28,546.30 94.87,540.00 91.99,534.50 C89.12,529.00 85.51,522.25 83.98,519.50 C82.46,516.75 79.57,511.35 77.58,507.50 C74.02,500.61 73.00,498.73 70.99,495.25 C70.43,494.29 69.07,491.70 67.97,489.50 C66.87,487.30 64.19,482.35 62.03,478.50 C59.87,474.65 56.42,468.12 54.37,464.00 C52.31,459.88 49.14,453.95 47.32,450.83 C45.49,447.71 44.00,444.60 44.00,443.91 C44.00,443.22 43.28,441.87 42.41,440.90 C41.54,439.93 39.11,435.85 37.02,431.82 C34.93,427.79 31.71,421.57 29.86,418.00 L26.50,411.50L26.23,322.10 C25.98,240.74 26.10,232.54 27.58,230.91 C29.12,229.21 33.29,229.11 102.01,229.03 C182.42,228.95 177.28,228.52 178.51,235.28 C178.83,237.05 178.93,246.73 178.72,256.80 C178.51,266.86 178.70,275.31 179.13,275.58 C180.26,276.28 329.94,276.15 331.07,275.46 C331.60,275.13 332.00,265.44 332.00,252.98 C332.00,232.04 332.09,231.02 334.01,229.99 C336.59,228.61 479.66,228.75 482.25,230.13 C483.90,231.02 484.00,236.33 483.94,320.79 L483.87,410.50L480.98,416.00 C479.38,419.02 477.17,423.30 476.05,425.50 C474.94,427.70 473.57,430.29 473.01,431.25 C471.06,434.62 470.01,436.53 468.20,440.00 C465.96,444.30 463.97,448.02 462.83,450.00 C462.36,450.82 461.08,453.30 459.98,455.50 C458.88,457.70 456.64,461.97 454.99,464.98 C453.35,467.99 452.00,471.00 452.00,471.66 C452.00,472.32 451.32,473.54 450.49,474.37 C449.66,475.20 447.39,478.94 445.44,482.69 C443.49,486.43 441.50,490.18 441.02,491.00 C440.54,491.82 439.87,493.18 439.52,494.00 C439.18,494.82 437.82,497.30 436.50,499.50 C435.18,501.70 433.04,505.52 431.74,508.00 C430.44,510.48 426.75,517.45 423.53,523.50 C420.32,529.55 415.93,537.88 413.78,542.00 C411.64,546.12 408.74,551.52 407.35,554.00 C404.91,558.33 401.55,564.53 393.54,579.50 C389.09,587.81 387.89,589.26 382.22,593.09 C378.26,595.76 377.17,596.00 369.08,596.00 C361.78,596.00 359.83,595.66 357.73,594.00 C356.33,592.90 354.74,592.00 354.19,592.00 C353.64,592.00 351.91,590.00 350.34,587.56 C342.20,574.85 340.00,571.07 340.00,569.80 C340.00,569.03 339.59,567.97 339.09,567.45 C338.03,566.33 329.26,550.05 327.54,546.00 C327.19,545.17 325.80,542.70 324.46,540.50 C323.11,538.30 321.37,535.13 320.58,533.45 C319.79,531.78 316.64,526.06 313.57,520.76 C310.51,515.45 308.00,510.47 308.00,509.69 C308.00,508.91 307.18,507.20 306.17,505.88 C305.16,504.57 304.04,502.82 303.67,502.00 C303.30,501.18 300.97,496.90 298.51,492.50 C296.04,488.10 293.13,482.70 292.03,480.50 C290.93,478.30 289.62,475.82 289.12,475.00 C288.62,474.18 287.70,472.38 287.08,471.00 C286.46,469.62 284.17,465.35 281.99,461.50 C279.81,457.65 277.35,453.06 276.52,451.31 C272.42,442.59 259.57,436.77 249.50,439.07 C240.42,441.15 236.65,444.72 230.04,457.50 C228.61,460.25 226.73,463.62 225.86,465.00 C224.98,466.38 221.67,472.45 218.49,478.50 C215.32,484.55 210.45,493.77 207.67,499.00 C204.90,504.23 201.72,510.30 200.62,512.50 C199.51,514.70 198.30,516.73 197.92,517.00 C197.54,517.27 196.51,519.08 195.63,521.00 C194.76,522.92 193.58,525.29 193.02,526.25 C191.59,528.71 190.86,530.09 184.39,542.50 C181.24,548.55 177.50,555.63 176.08,558.24 C174.66,560.85 172.17,565.57 170.55,568.74 C168.93,571.91 166.85,575.40 165.93,576.50 C165.01,577.60 163.99,579.65 163.66,581.06 C163.06,583.63 157.56,589.71 152.32,593.60 C149.29,595.84 139.88,597.17 134.50,596.10 Z M1195.49,526.74 C1194.67,526.28 1194.00,525.24 1194.00,524.44 C1194.00,523.23 1203.89,502.23 1206.92,497.00 C1207.40,496.18 1209.90,491.00 1212.49,485.50 C1215.07,480.00 1217.59,474.82 1218.10,474.00 C1218.60,473.18 1219.27,471.82 1219.58,471.00 C1220.44,468.75 1232.03,444.73 1233.09,443.00 C1233.60,442.18 1234.52,440.38 1235.13,439.00 C1236.59,435.72 1241.17,426.52 1242.74,423.71 C1244.48,420.59 1244.30,418.65 1242.00,415.73 C1240.90,414.33 1240.00,412.43 1240.00,411.50 C1240.00,410.57 1239.10,408.67 1238.00,407.27 C1236.90,405.87 1236.00,404.09 1236.00,403.31 C1236.00,402.53 1235.15,400.23 1234.12,398.20 C1233.09,396.16 1231.29,392.36 1230.12,389.75 C1226.70,382.09 1224.13,376.29 1222.14,371.75 C1217.87,362.02 1216.18,358.27 1214.14,354.00 C1212.96,351.52 1211.99,348.82 1211.97,348.00 C1211.96,347.18 1211.08,345.38 1210.00,344.00 C1208.92,342.62 1208.03,340.91 1208.02,340.20 C1208.01,339.48 1207.16,337.23 1206.13,335.20 C1205.10,333.16 1203.36,329.48 1202.25,327.00 C1201.15,324.52 1198.39,318.57 1196.12,313.77 C1193.85,308.97 1191.99,304.24 1191.98,303.27 C1191.97,302.30 1191.08,300.38 1190.00,299.00 C1188.92,297.62 1188.03,295.89 1188.02,295.14 C1188.01,294.39 1187.17,292.14 1186.16,290.14 C1185.15,288.14 1183.30,284.25 1182.04,281.50 C1180.78,278.75 1178.91,274.84 1177.88,272.80 C1176.85,270.77 1176.00,268.36 1176.00,267.46 C1176.00,266.56 1175.10,264.67 1174.00,263.27 C1172.90,261.87 1172.00,260.06 1172.00,259.25 C1172.00,258.44 1171.17,256.14 1170.16,254.14 C1169.15,252.14 1167.41,248.47 1166.30,246.00 C1160.83,233.86 1159.63,231.24 1158.00,228.00 C1157.04,226.07 1155.93,223.04 1155.55,221.26 C1155.16,219.48 1154.43,217.77 1153.92,217.45 C1152.42,216.53 1152.87,213.26 1154.58,212.61 C1157.62,211.44 1175.55,211.95 1177.18,213.25 C1178.04,213.94 1179.98,216.97 1181.50,220.00 C1183.02,223.03 1185.11,227.16 1186.13,229.20 C1187.16,231.23 1188.00,233.62 1188.00,234.50 C1188.00,235.38 1188.85,237.77 1189.88,239.80 C1190.91,241.84 1192.67,245.53 1193.80,248.00 C1194.92,250.47 1197.60,256.32 1199.76,261.00 C1201.92,265.68 1204.71,272.20 1205.96,275.50 C1207.21,278.80 1208.63,282.29 1209.12,283.25 C1210.04,285.07 1210.29,285.59 1213.85,293.00 C1215.03,295.48 1216.01,298.18 1216.01,299.00 C1216.01,299.82 1216.91,301.85 1218.00,303.50 C1219.09,305.15 1219.99,307.33 1219.99,308.34 C1220.00,309.36 1220.90,311.33 1222.00,312.73 C1223.10,314.13 1224.00,316.00 1224.01,316.88 C1224.01,317.77 1224.91,319.85 1226.00,321.50 C1227.09,323.15 1227.99,325.45 1227.99,326.62 C1228.00,327.78 1228.90,329.87 1230.00,331.27 C1231.10,332.67 1232.00,334.56 1232.00,335.46 C1232.00,336.36 1232.96,338.99 1234.14,341.30 C1239.33,351.46 1240.00,353.00 1240.00,354.81 C1240.00,355.87 1240.90,357.87 1242.00,359.27 C1243.10,360.67 1244.00,362.56 1244.00,363.46 C1244.00,364.36 1244.98,366.99 1246.17,369.30 C1247.37,371.61 1248.72,374.29 1249.17,375.25 C1249.63,376.21 1250.40,377.79 1250.89,378.75 C1251.37,379.71 1252.81,382.88 1254.07,385.79 C1256.56,391.50 1258.85,392.35 1260.04,388.00 C1260.41,386.62 1263.26,380.20 1266.36,373.71 C1269.46,367.23 1272.00,361.57 1272.00,361.12 C1272.00,360.68 1273.30,357.66 1274.88,354.41 C1278.94,346.10 1288.73,324.70 1292.91,315.00 C1293.50,313.62 1294.36,311.82 1294.82,311.00 C1297.95,305.39 1300.00,300.89 1300.00,299.63 C1300.00,298.82 1301.87,294.41 1304.16,289.83 C1306.45,285.25 1309.22,279.48 1310.31,277.00 C1314.08,268.44 1315.83,264.48 1317.81,260.00 C1318.90,257.52 1321.70,251.45 1324.01,246.50 C1326.33,241.55 1329.13,235.47 1330.23,233.00 C1331.34,230.53 1333.09,226.84 1334.12,224.80 C1335.15,222.77 1336.00,220.44 1336.00,219.63 C1336.00,218.82 1337.18,216.75 1338.62,215.05 L1341.23,211.94L1352.26,212.22 C1366.80,212.59 1366.87,212.70 1360.54,225.65 C1356.12,234.70 1353.98,239.29 1351.09,246.00 C1350.50,247.38 1349.60,249.18 1349.09,250.00 C1348.58,250.82 1346.27,255.55 1343.95,260.50 C1335.92,277.69 1334.74,280.05 1333.87,280.58 C1333.39,280.88 1333.00,281.83 1333.00,282.70 C1333.00,283.57 1330.91,288.60 1328.37,293.89 C1325.82,299.17 1322.82,305.52 1321.71,308.00 C1320.60,310.48 1319.24,313.40 1318.69,314.50 C1318.14,315.60 1317.37,317.18 1316.99,318.00 C1311.54,329.76 1305.98,341.44 1305.08,343.00 C1304.61,343.82 1303.22,346.98 1302.00,350.00 C1300.77,353.02 1299.31,356.38 1298.75,357.46 C1298.18,358.54 1296.69,361.36 1295.43,363.72 C1294.18,366.08 1292.64,369.55 1292.02,371.43 C1291.40,373.30 1290.25,375.38 1289.45,376.04 C1288.65,376.70 1287.99,378.20 1287.98,379.37 C1287.97,380.54 1287.08,382.62 1286.00,384.00 C1284.92,385.38 1284.03,387.09 1284.02,387.80 C1284.01,388.52 1283.12,390.77 1282.05,392.80 C1280.97,394.84 1277.55,401.90 1274.43,408.50 C1271.31,415.10 1266.85,424.55 1264.52,429.50 C1262.18,434.45 1259.21,440.98 1257.92,444.00 C1256.62,447.02 1254.76,450.57 1253.78,451.88 C1252.80,453.20 1252.00,454.91 1252.00,455.69 C1252.00,456.47 1251.16,458.77 1250.13,460.80 C1249.10,462.84 1246.46,468.32 1244.26,473.00 C1242.06,477.68 1238.44,485.32 1236.22,490.00 C1234.00,494.68 1230.29,502.55 1227.98,507.50 C1225.66,512.45 1223.13,517.62 1222.34,519.00 C1221.55,520.38 1220.43,522.74 1219.85,524.25 C1219.28,525.76 1218.51,527.01 1218.15,527.03 C1208.10,527.52 1196.63,527.37 1195.49,526.74 Z M796.00,436.51 C789.12,435.83 781.83,434.54 779.78,433.64 C777.74,432.74 774.91,432.00 773.49,432.00 C772.08,432.00 769.16,431.10 767.00,430.00 C764.84,428.90 762.44,428.00 761.66,428.00 C759.65,428.00 734.41,415.20 732.96,413.45 C732.30,412.65 731.16,412.00 730.44,412.00 C726.78,412.00 697.87,385.49 691.63,376.41 C680.41,360.09 679.25,358.07 669.90,338.50 C668.85,336.30 668.00,333.92 668.00,333.21 C668.00,332.50 667.10,330.16 666.00,328.00 C664.90,325.84 663.98,322.82 663.96,321.29 C663.93,319.76 663.23,316.70 662.39,314.50 C660.90,310.58 658.46,292.36 657.30,276.50 C656.72,268.58 659.03,242.36 661.13,233.00 C663.78,221.23 664.90,217.27 666.38,214.50 C667.27,212.85 667.99,210.60 668.00,209.50 C668.01,208.40 668.91,206.15 670.00,204.50 C671.09,202.85 672.00,200.60 672.02,199.50 C672.03,198.40 672.92,196.38 674.00,195.00 C675.08,193.62 675.97,192.08 675.98,191.56 C676.01,190.24 683.67,177.58 688.47,170.90 C695.09,161.72 708.89,147.35 718.71,139.43 C723.78,135.34 728.33,132.00 728.84,132.00 C729.34,132.00 730.34,131.30 731.05,130.44 C731.76,129.59 733.73,128.24 735.42,127.45 C737.11,126.66 740.75,124.69 743.50,123.08 C746.25,121.46 749.23,120.10 750.12,120.07 C751.00,120.03 752.80,119.17 754.12,118.16 C755.43,117.15 758.30,115.84 760.50,115.25 C762.70,114.66 765.85,113.73 767.50,113.18 C785.24,107.26 804.86,104.48 823.25,105.30 C838.60,105.99 855.35,108.30 860.22,110.40 C862.26,111.28 865.06,112.00 866.44,112.00 C867.82,112.00 870.87,112.87 873.22,113.93 C875.58,115.00 879.75,116.84 882.50,118.02 C899.08,125.17 910.48,132.30 924.82,144.50 C927.41,146.70 930.76,149.46 932.26,150.64 C933.77,151.82 935.00,153.44 935.00,154.23 C935.00,155.80 919.43,172.00 917.92,172.00 C917.41,172.00 915.32,170.15 913.27,167.88 C909.51,163.71 896.76,152.96 894.00,151.63 C893.17,151.23 890.70,149.80 888.50,148.46 C886.30,147.11 882.92,145.30 881.00,144.43 C879.08,143.55 874.22,141.30 870.21,139.42 C866.20,137.54 862.15,136.00 861.21,136.00 C860.27,136.00 856.80,135.11 853.50,134.03 C845.66,131.45 823.71,129.52 811.43,130.33 C797.56,131.24 784.94,133.08 781.80,134.65 C780.31,135.39 778.06,136.00 776.80,136.01 C775.53,136.01 773.15,136.91 771.50,138.00 C769.85,139.09 767.55,139.99 766.38,139.99 C765.22,140.00 763.13,140.90 761.73,142.00 C760.33,143.10 758.53,144.00 757.73,144.00 C756.93,144.00 755.19,144.79 753.87,145.75 C750.49,148.22 747.89,149.83 745.00,151.23 C736.61,155.29 710.84,180.68 707.69,188.00 C707.33,188.82 705.92,191.30 704.55,193.50 C702.24,197.21 699.60,202.43 694.87,212.60 C692.41,217.90 690.74,223.61 686.31,242.00 C683.76,252.58 683.76,293.22 686.32,299.88 C687.24,302.28 688.00,305.72 688.00,307.52 C688.00,309.31 688.89,312.74 689.98,315.14 C691.07,317.54 691.97,320.54 691.98,321.80 C691.99,323.07 692.86,325.77 693.91,327.80 C694.96,329.84 697.55,335.09 699.66,339.48 C701.77,343.86 704.51,348.95 705.75,350.77 C706.99,352.60 708.00,354.31 708.00,354.57 C708.00,354.84 710.70,358.59 713.99,362.91 C720.92,371.99 734.20,384.89 742.48,390.57 C749.55,395.42 765.78,404.00 767.92,404.01 C768.79,404.01 770.85,404.91 772.50,406.00 C774.15,407.09 776.75,407.99 778.28,407.99 C779.81,408.00 782.74,408.70 784.78,409.56 C794.53,413.64 845.89,413.70 853.74,409.63 C855.48,408.73 858.16,407.98 859.70,407.97 C861.24,407.95 864.30,407.06 866.50,406.00 C868.70,404.94 870.87,404.05 871.32,404.03 C873.17,403.96 891.56,394.59 892.30,393.35 C892.74,392.61 893.50,392.00 894.00,392.00 C895.91,392.00 904.80,385.27 911.43,378.82 C915.25,375.10 919.20,371.94 920.22,371.78 C921.41,371.60 924.76,374.16 929.55,378.93 C935.48,384.82 936.89,386.78 936.37,388.40 C935.30,391.78 923.76,402.17 915.15,407.50 C914.26,408.05 912.94,409.29 912.21,410.25 C911.48,411.21 910.29,412.00 909.57,412.00 C908.84,412.00 907.66,412.70 906.95,413.56 C906.24,414.41 904.27,415.76 902.58,416.54 C899.56,417.93 898.18,418.74 892.85,422.25 C891.39,423.21 889.64,424.00 888.96,424.00 C888.28,424.00 885.87,424.84 883.61,425.88 C876.16,429.28 868.49,432.00 866.36,432.00 C865.20,432.00 862.28,432.72 859.88,433.61 C854.35,435.64 831.60,437.96 818.50,437.84 C813.00,437.79 802.88,437.19 796.00,436.51 Z M1452.50,436.47 C1447.00,435.74 1439.35,433.97 1435.50,432.51 C1431.65,431.06 1427.15,429.38 1425.50,428.78 C1423.85,428.18 1421.31,426.86 1419.85,425.85 C1418.39,424.83 1416.77,424.00 1416.25,424.00 C1415.73,424.00 1414.50,423.10 1413.50,422.00 C1412.50,420.90 1411.33,420.00 1410.90,420.00 C1410.05,420.00 1398.31,411.31 1395.09,408.29 C1390.67,404.16 1387.21,398.91 1387.70,397.05 C1388.25,394.95 1400.23,383.00 1401.78,383.00 C1402.31,383.00 1405.16,385.73 1408.12,389.06 C1413.75,395.40 1425.19,404.04 1432.00,407.10 C1433.38,407.72 1435.84,408.94 1437.48,409.81 C1439.12,410.68 1442.27,411.69 1444.48,412.07 C1446.69,412.44 1451.18,413.48 1454.46,414.37 C1462.50,416.57 1484.81,416.56 1490.50,414.37 C1492.70,413.52 1496.41,412.49 1498.75,412.07 C1501.08,411.66 1503.82,410.57 1504.82,409.66 C1505.83,408.75 1507.02,408.00 1507.47,408.00 C1509.34,408.00 1519.00,398.68 1521.44,394.52 C1523.88,390.36 1524.08,389.09 1524.21,377.50 C1524.34,366.07 1524.16,364.71 1522.18,362.02 C1520.98,360.41 1520.00,358.65 1520.00,358.12 C1520.00,356.62 1505.76,344.00 1504.04,343.98 C1503.19,343.97 1501.38,343.08 1500.00,342.00 C1498.62,340.92 1496.92,340.03 1496.21,340.02 C1495.50,340.01 1493.16,339.10 1491.00,338.00 C1488.84,336.90 1486.27,336.00 1485.28,336.00 C1484.28,336.00 1481.79,335.10 1479.74,334.00 C1477.69,332.90 1474.77,331.98 1473.25,331.97 C1471.74,331.95 1468.70,331.06 1466.50,330.00 C1464.30,328.94 1461.61,328.05 1460.52,328.03 C1458.23,327.99 1449.17,324.68 1443.80,321.91 C1441.77,320.86 1439.29,320.00 1438.30,319.99 C1437.31,319.99 1435.15,319.09 1433.50,318.00 C1431.85,316.91 1429.78,316.01 1428.90,316.01 C1428.03,316.00 1426.50,315.10 1425.50,314.00 C1424.50,312.90 1423.25,312.00 1422.71,312.00 C1422.17,312.00 1420.69,310.99 1419.42,309.75 C1418.15,308.51 1415.91,306.38 1414.45,305.00 C1409.63,300.46 1404.00,292.85 1404.00,290.88 C1404.00,289.81 1403.21,287.73 1402.25,286.26 C1400.86,284.14 1400.43,280.85 1400.15,270.22 C1399.84,258.43 1400.07,255.99 1402.09,249.67 C1403.35,245.73 1405.92,240.25 1407.81,237.50 C1412.59,230.52 1420.84,222.18 1425.00,220.12 C1429.19,218.03 1431.17,217.03 1436.70,214.17 C1439.01,212.98 1441.97,212.00 1443.29,212.00 C1444.61,212.00 1448.30,211.10 1451.50,210.00 C1459.24,207.34 1484.36,207.12 1493.54,209.63 C1496.82,210.53 1501.53,211.59 1504.00,211.99 C1506.47,212.38 1509.85,213.44 1511.50,214.35 C1513.15,215.25 1515.23,215.99 1516.12,215.99 C1517.00,216.00 1518.87,216.90 1520.27,218.00 C1521.67,219.10 1523.29,220.00 1523.88,220.00 C1527.62,220.00 1548.00,237.92 1548.00,241.21 C1548.00,241.96 1544.80,245.81 1540.89,249.76 C1532.92,257.83 1533.06,257.82 1526.50,251.00 C1521.61,245.92 1516.40,242.34 1508.50,238.64 C1505.20,237.09 1500.84,234.97 1498.80,233.91 C1496.77,232.86 1493.17,232.00 1490.80,231.99 C1488.44,231.99 1483.58,231.49 1480.00,230.89 C1471.34,229.44 1452.08,231.27 1446.80,234.05 C1444.77,235.12 1442.57,236.00 1441.91,236.00 C1439.47,236.00 1430.10,245.16 1427.10,250.48 C1424.20,255.61 1424.00,256.63 1424.00,266.02 C1424.00,275.16 1424.25,276.50 1426.75,280.84 C1429.66,285.88 1440.09,296.00 1442.38,296.00 C1443.12,296.00 1444.80,296.83 1446.12,297.85 C1447.43,298.87 1449.62,299.96 1451.00,300.27 C1453.75,300.90 1460.78,303.24 1468.52,306.13 C1471.28,307.16 1474.56,308.00 1475.82,308.00 C1477.07,308.00 1479.54,308.76 1481.30,309.68 C1483.06,310.60 1486.30,311.69 1488.50,312.10 C1493.79,313.08 1504.25,316.97 1512.04,320.86 C1515.49,322.59 1518.73,324.00 1519.24,324.00 C1520.87,324.00 1534.63,335.78 1538.76,340.72 C1541.30,343.74 1543.76,348.36 1545.45,353.27 C1547.86,360.24 1548.14,362.52 1548.22,375.76 C1548.31,388.86 1548.08,391.02 1546.16,395.20 C1544.97,397.78 1544.00,400.33 1544.00,400.88 C1544.00,405.12 1524.36,426.38 1519.30,427.62 C1517.76,428.00 1515.43,429.14 1514.12,430.15 C1512.80,431.17 1510.54,432.00 1509.09,432.00 C1507.63,432.00 1505.38,432.75 1504.08,433.66 C1501.21,435.67 1483.10,437.97 1471.00,437.85 C1466.33,437.81 1458.00,437.19 1452.50,436.47 Z M1840.00,436.53 C1830.14,435.32 1822.16,433.12 1815.80,429.88 C1813.77,428.85 1811.24,428.00 1810.17,428.00 C1809.11,428.00 1807.70,427.34 1807.03,426.54 C1806.37,425.74 1804.86,424.77 1803.68,424.40 C1797.55,422.45 1780.44,408.24 1772.45,398.46 C1763.54,387.56 1752.00,366.43 1752.00,361.01 C1752.00,359.95 1751.03,356.69 1749.84,353.79 C1747.85,348.90 1747.67,346.67 1747.59,324.50 C1747.51,302.00 1747.64,300.11 1749.75,294.25 C1750.99,290.81 1752.00,287.11 1752.00,286.02 C1752.00,284.14 1753.71,279.87 1758.42,270.00 C1761.67,263.20 1769.26,252.16 1774.93,246.00 C1777.71,242.97 1779.99,240.25 1780.00,239.95 C1780.00,239.10 1793.73,228.00 1794.77,228.00 C1795.28,228.00 1796.50,227.10 1797.50,226.00 C1798.50,224.90 1799.85,224.00 1800.50,224.00 C1801.15,224.00 1802.50,223.10 1803.50,222.00 C1804.50,220.90 1805.94,220.00 1806.71,220.00 C1807.48,220.00 1809.77,219.15 1811.80,218.10 C1819.13,214.35 1825.10,212.00 1827.31,212.00 C1828.55,212.00 1832.13,211.10 1835.26,210.00 C1842.83,207.34 1868.33,207.11 1877.54,209.63 C1880.82,210.52 1885.30,211.58 1887.50,211.97 C1889.70,212.37 1893.30,213.50 1895.50,214.48 C1903.49,218.06 1910.52,221.47 1911.50,222.24 C1912.05,222.68 1913.92,224.04 1915.65,225.27 C1923.08,230.52 1926.76,233.73 1930.83,238.46 C1936.14,244.65 1940.75,250.74 1941.24,252.23 C1941.45,252.85 1942.15,253.02 1942.81,252.62 C1943.66,252.09 1944.00,246.52 1944.00,232.98 C1944.00,215.03 1944.10,214.02 1946.02,212.99 C1947.96,211.95 1962.62,211.72 1966.25,212.68 C1967.90,213.11 1968.00,219.18 1968.00,322.51 C1968.00,392.81 1967.65,432.10 1967.02,432.49 C1966.48,432.82 1961.56,433.27 1956.09,433.48 C1948.90,433.76 1945.85,433.52 1945.09,432.61 C1944.47,431.86 1943.94,423.73 1943.77,412.51 C1943.58,399.19 1943.16,393.55 1942.33,393.27 C1941.68,393.06 1939.92,395.05 1938.41,397.69 C1933.88,405.62 1916.74,421.50 1906.63,427.13 C1902.66,429.35 1895.99,432.00 1894.39,432.01 C1893.35,432.01 1891.15,432.75 1889.50,433.66 C1885.83,435.67 1868.36,437.94 1857.50,437.81 C1853.10,437.75 1845.22,437.18 1840.00,436.53 Z M2564.00,436.10 C2559.88,435.68 2554.35,434.59 2551.72,433.67 C2549.08,432.75 2545.71,432.00 2544.22,432.00 C2542.72,431.99 2540.03,431.09 2538.23,430.00 C2536.43,428.90 2534.12,428.00 2533.11,428.00 C2532.10,428.00 2530.13,427.10 2528.73,426.00 C2527.33,424.90 2525.45,424.00 2524.55,424.00 C2523.65,424.00 2521.70,423.17 2520.21,422.15 C2518.72,421.13 2514.14,418.09 2510.03,415.40 C2498.97,408.15 2484.04,392.81 2478.11,382.63 C2476.79,380.36 2474.88,377.57 2473.86,376.44 C2472.83,375.30 2472.00,373.73 2471.99,372.94 C2471.99,372.15 2471.09,370.15 2470.00,368.50 C2468.91,366.85 2468.01,364.72 2468.01,363.78 C2468.00,362.83 2467.14,360.13 2466.10,357.78 C2464.30,353.72 2463.28,349.65 2460.89,337.00 C2459.32,328.67 2460.33,296.49 2462.32,291.50 C2463.20,289.30 2463.93,286.04 2463.96,284.25 C2463.98,282.46 2464.90,279.31 2466.00,277.26 C2467.10,275.21 2468.00,272.69 2468.00,271.67 C2468.00,270.65 2468.90,268.67 2470.00,267.27 C2471.10,265.87 2472.00,264.00 2472.00,263.12 C2472.00,262.23 2473.80,258.91 2476.00,255.74 C2478.20,252.57 2480.00,249.69 2480.00,249.35 C2480.00,248.68 2487.72,239.44 2492.00,234.98 C2496.55,230.23 2508.65,220.00 2509.71,220.00 C2510.29,220.00 2511.34,219.30 2512.05,218.44 C2512.76,217.59 2514.73,216.24 2516.42,215.45 C2518.11,214.66 2521.75,212.69 2524.50,211.08 C2527.25,209.46 2530.31,208.10 2531.30,208.07 C2532.29,208.03 2534.77,207.14 2536.80,206.10 C2542.88,202.97 2550.89,200.72 2558.93,199.89 C2563.09,199.45 2569.37,198.78 2572.88,198.40 C2581.73,197.43 2607.34,199.84 2612.83,202.17 C2615.22,203.17 2617.87,204.00 2618.72,204.00 C2620.20,204.00 2622.74,205.07 2634.67,210.71 C2637.52,212.06 2640.09,213.80 2640.39,214.58 C2640.69,215.36 2641.60,216.00 2642.40,216.00 C2646.23,216.00 2668.01,236.26 2671.56,243.12 C2672.41,244.76 2673.87,246.88 2674.80,247.83 C2675.74,248.77 2677.24,251.11 2678.14,253.02 C2679.04,254.94 2681.62,260.21 2683.89,264.74 C2686.15,269.28 2688.00,274.14 2688.00,275.54 C2688.00,276.95 2688.70,279.46 2689.56,281.11 C2691.80,285.46 2693.28,306.11 2692.47,321.91 C2691.84,334.15 2691.58,335.52 2689.43,337.66 L2687.09,340.00L2605.55,340.00 C2541.04,340.00 2523.98,340.26 2523.88,341.25 C2523.06,350.21 2538.21,370.80 2549.55,376.13 C2552.01,377.29 2554.27,378.63 2554.57,379.12 C2554.87,379.60 2555.93,380.00 2556.93,380.00 C2557.93,380.00 2560.89,380.95 2563.51,382.11 C2567.90,384.05 2569.69,384.19 2586.43,383.85 C2601.63,383.55 2605.03,383.21 2607.26,381.75 C2608.73,380.79 2610.80,380.00 2611.87,380.00 C2615.14,380.00 2624.12,374.95 2631.73,368.82 C2635.71,365.62 2639.67,363.00 2640.53,363.00 C2642.50,363.00 2676.00,396.12 2676.00,398.06 C2676.00,399.58 2665.41,410.52 2662.12,412.39 C2661.05,413.00 2658.22,414.85 2655.84,416.50 C2653.45,418.15 2648.93,420.78 2645.79,422.35 C2642.65,423.92 2639.56,425.83 2638.92,426.60 C2638.28,427.37 2636.57,428.00 2635.13,428.01 C2633.68,428.01 2631.15,428.91 2629.50,430.00 C2627.85,431.09 2625.05,431.99 2623.29,431.99 C2621.52,432.00 2617.81,432.89 2615.05,433.98 C2610.84,435.64 2606.90,436.03 2590.76,436.40 C2580.17,436.65 2568.12,436.51 2564.00,436.10 Z M997.98,432.80 C996.89,432.39 995.99,431.49 995.98,430.78 C995.97,430.08 995.98,381.12 995.99,322.00 C996.01,221.00 996.12,214.42 997.76,213.18 C1000.29,211.26 1017.72,211.93 1019.02,214.00 C1019.54,214.82 1019.98,221.01 1019.98,227.75 C1020.00,237.51 1020.28,240.00 1021.38,240.00 C1022.15,240.00 1023.49,238.91 1024.36,237.57 C1026.89,233.72 1040.96,220.00 1042.39,220.00 C1043.11,220.00 1044.50,219.10 1045.50,218.00 C1046.50,216.90 1048.03,216.00 1048.90,215.99 C1049.78,215.99 1051.85,215.09 1053.50,214.00 C1055.15,212.91 1057.42,212.01 1058.53,212.01 C1059.65,212.00 1063.25,211.05 1066.53,209.89 C1071.85,208.02 1074.08,207.84 1087.00,208.25 C1097.87,208.59 1102.25,209.12 1104.50,210.35 C1106.15,211.25 1108.62,211.99 1110.00,212.00 C1111.38,212.01 1113.85,212.91 1115.50,214.00 C1117.15,215.09 1119.05,215.99 1119.71,215.99 C1120.38,216.00 1122.86,217.36 1125.21,219.03 C1127.57,220.70 1130.62,222.84 1132.00,223.78 C1136.97,227.20 1140.00,230.37 1140.00,232.16 C1140.00,234.26 1127.08,248.00 1125.10,248.00 C1124.37,248.00 1121.69,246.25 1119.14,244.12 C1116.59,241.98 1111.35,238.49 1107.50,236.37 L1100.50,232.50L1082.75,232.15 C1066.17,231.83 1064.76,231.94 1061.44,233.90 C1059.49,235.06 1057.19,236.00 1056.35,236.00 C1055.51,236.00 1053.67,236.90 1052.27,238.00 C1050.87,239.10 1049.18,240.00 1048.50,240.00 C1047.83,240.00 1044.12,243.04 1040.27,246.75 C1032.75,254.01 1024.00,267.85 1024.00,272.50 C1024.00,273.93 1023.21,276.54 1022.25,278.30 C1020.64,281.25 1020.48,287.28 1020.20,356.17 C1019.95,419.80 1019.69,431.01 1018.46,432.03 C1016.84,433.37 1001.12,433.96 997.98,432.80 Z M1641.11,432.71 C1640.31,431.91 1640.00,404.48 1640.00,334.50 C1640.00,260.31 1639.72,237.12 1638.80,236.20 C1637.93,235.33 1630.45,235.00 1611.42,235.00 C1590.99,235.00 1585.01,234.71 1584.15,233.68 C1582.61,231.83 1582.40,217.00 1583.87,214.24 C1585.07,212.00 1585.11,212.00 1612.04,212.00 C1626.87,212.00 1639.10,211.89 1639.22,211.75 C1639.35,211.61 1639.69,191.03 1639.97,166.00 L1640.50,120.50L1652.00,120.50 L1663.50,120.50L1664.00,166.00 L1664.50,211.50L1691.00,212.00 C1705.58,212.28 1718.00,212.83 1718.62,213.23 C1720.02,214.14 1721.03,229.70 1719.89,232.75 L1719.05,235.00L1692.13,235.00 C1668.51,235.00 1665.14,235.19 1664.61,236.58 C1664.27,237.45 1664.00,281.79 1664.00,335.11 C1664.00,411.80 1663.74,432.14 1662.75,432.45 C1659.28,433.53 1642.13,433.73 1641.11,432.71 Z M2040.75,433.00 C2039.09,431.96 2039.00,422.94 2039.00,266.56 C2039.00,116.71 2039.15,101.16 2040.58,100.61 C2043.56,99.46 2061.54,99.94 2062.80,101.20 C2064.26,102.66 2064.57,431.53 2063.12,432.43 C2061.21,433.60 2042.48,434.08 2040.75,433.00 Z M2128.71,431.38 C2128.32,430.99 2128.00,356.55 2128.00,265.96 C2128.00,125.53 2128.21,101.07 2129.41,100.08 C2130.46,99.20 2150.10,98.98 2207.66,99.22 C2284.09,99.52 2284.55,99.54 2294.00,101.84 C2299.22,103.12 2306.20,105.02 2309.50,106.08 C2312.80,107.14 2316.54,108.00 2317.80,108.00 C2319.07,108.00 2321.77,108.85 2323.80,109.88 C2327.21,111.61 2332.83,114.21 2339.00,116.90 C2340.38,117.49 2342.18,118.41 2343.00,118.92 C2343.82,119.43 2345.18,120.13 2346.00,120.48 C2357.47,125.22 2382.88,146.66 2395.24,162.04 C2399.70,167.57 2408.00,179.87 2408.00,180.92 C2408.00,181.34 2408.90,182.50 2410.00,183.50 C2411.10,184.50 2412.00,186.04 2412.00,186.93 C2412.00,187.82 2412.79,189.67 2413.75,191.03 C2415.43,193.40 2416.30,195.37 2419.05,203.00 C2419.74,204.93 2421.08,208.53 2422.03,211.00 C2422.98,213.47 2424.08,217.30 2424.47,219.50 C2424.86,221.70 2425.65,224.06 2426.22,224.75 C2426.79,225.44 2427.64,229.49 2428.11,233.75 C2428.59,238.01 2429.41,244.65 2429.95,248.50 C2431.22,257.55 2431.21,272.50 2429.92,282.00 C2429.36,286.12 2428.55,292.43 2428.11,296.00 C2427.10,304.25 2424.30,315.31 2421.88,320.61 C2420.84,322.87 2420.00,325.41 2420.00,326.26 C2420.00,327.10 2418.45,330.88 2416.55,334.65 C2414.65,338.42 2412.40,343.07 2411.54,345.00 C2407.11,354.97 2393.08,374.19 2383.55,383.35 C2374.54,392.01 2358.41,404.61 2353.00,407.22 C2351.62,407.88 2349.43,409.23 2348.12,410.21 C2346.80,411.19 2344.96,412.00 2344.02,412.00 C2343.08,412.00 2341.50,412.90 2340.50,414.00 C2339.50,415.10 2337.80,416.00 2336.71,416.00 C2335.63,416.00 2333.33,416.85 2331.62,417.89 C2329.90,418.93 2327.07,420.09 2325.32,420.46 C2323.57,420.83 2321.60,421.77 2320.95,422.56 C2320.29,423.35 2318.44,424.00 2316.83,424.00 C2315.22,424.00 2312.60,424.67 2311.01,425.50 C2309.42,426.32 2305.05,427.43 2301.31,427.97 C2297.56,428.52 2292.93,429.51 2291.00,430.19 C2288.37,431.12 2267.83,431.51 2208.46,431.76 C2164.99,431.94 2129.10,431.77 2128.71,431.38 Z M2731.72,431.39 C2731.37,431.04 2731.07,380.11 2731.06,318.21 C2731.04,235.82 2731.33,205.30 2732.16,204.31 C2733.07,203.21 2738.86,202.96 2761.96,203.05 C2777.73,203.10 2791.27,203.55 2792.06,204.04 C2793.03,204.63 2793.66,207.45 2794.00,212.71 C2794.45,219.77 2794.70,220.53 2796.68,220.81 C2798.08,221.01 2799.26,220.38 2799.96,219.07 C2800.57,217.94 2802.28,216.33 2803.78,215.48 C2805.28,214.63 2807.85,213.06 2809.50,211.98 C2811.15,210.90 2813.40,209.62 2814.50,209.12 C2815.60,208.63 2817.62,207.73 2819.00,207.12 C2820.38,206.51 2822.18,205.62 2823.00,205.15 C2834.05,198.76 2872.04,196.89 2885.52,202.07 C2888.28,203.13 2891.26,204.00 2892.13,204.00 C2893.01,204.00 2894.81,204.79 2896.13,205.75 C2899.05,207.89 2901.56,209.46 2905.50,211.62 C2916.17,217.49 2931.14,233.47 2936.77,245.00 C2937.44,246.38 2938.36,248.18 2938.82,249.00 C2942.39,255.40 2944.00,259.26 2944.00,261.43 C2944.00,262.82 2944.79,265.88 2945.75,268.23 C2947.37,272.17 2947.50,278.58 2947.50,352.00 L2947.50,431.50L2917.06,431.76 C2899.73,431.92 2886.24,431.64 2885.72,431.12 C2885.19,430.59 2884.85,404.30 2884.91,368.36 C2885.02,300.95 2884.38,286.63 2880.97,279.94 C2879.78,277.62 2878.40,275.22 2877.90,274.61 C2877.39,274.00 2876.03,272.24 2874.88,270.70 C2872.57,267.62 2862.71,260.00 2861.04,260.00 C2860.46,260.00 2858.31,259.10 2856.26,258.00 C2850.83,255.09 2829.57,255.11 2823.14,258.02 C2820.74,259.11 2818.36,260.00 2817.85,260.00 C2814.60,260.00 2800.00,273.54 2800.00,276.56 C2800.00,277.73 2799.14,279.46 2798.10,280.41 C2797.05,281.36 2795.87,284.01 2795.48,286.32 C2795.08,288.62 2794.47,322.23 2794.13,361.00 L2793.50,431.50L2762.93,431.76 C2746.12,431.91 2732.07,431.74 2731.72,431.39 Z M3028.67,431.33 C3028.30,430.97 3028.00,392.29 3028.00,345.39 C3028.00,298.49 3027.64,259.89 3027.19,259.62 C3026.75,259.35 3015.61,259.02 3002.44,258.89 C2982.94,258.71 2978.18,258.39 2976.75,257.18 C2975.17,255.83 2975.00,253.26 2975.00,230.47 C2975.00,211.51 2975.31,204.99 2976.25,204.21 C2977.03,203.57 2986.79,203.13 3001.96,203.05 C3019.94,202.96 3026.63,202.61 3027.20,201.71 C3027.62,201.05 3027.98,180.23 3027.98,155.45 C3028.00,121.76 3028.30,110.10 3029.20,109.20 C3030.08,108.32 3038.12,108.00 3059.13,108.00 C3083.91,108.00 3088.07,108.22 3089.43,109.57 C3090.81,110.95 3091.00,116.55 3091.02,155.82 C3091.02,180.39 3091.43,201.13 3091.92,201.90 C3092.63,203.03 3097.59,203.34 3117.65,203.49 C3131.32,203.60 3142.84,203.75 3143.25,203.84 C3143.66,203.93 3144.00,215.87 3144.00,230.38 C3144.00,250.98 3143.71,256.99 3142.68,257.85 C3141.80,258.58 3133.33,258.92 3117.25,258.87 C3103.99,258.83 3092.66,259.09 3092.07,259.46 C3091.32,259.92 3091.00,285.60 3091.00,344.12 C3091.00,400.12 3090.65,428.78 3089.96,430.07 C3088.98,431.91 3087.57,432.00 3059.13,432.00 C3042.74,432.00 3029.03,431.70 3028.67,431.33 Z M1880.99,413.02 C1886.21,411.94 1892.06,410.32 1893.99,409.41 C1905.94,403.80 1909.07,401.80 1915.72,395.50 C1923.33,388.29 1929.51,380.76 1932.14,375.50 C1932.96,373.85 1934.11,371.60 1934.69,370.50 C1937.57,365.03 1940.00,358.71 1940.00,356.69 C1940.00,355.45 1940.90,351.87 1942.00,348.74 C1943.73,343.82 1944.00,340.49 1944.00,324.00 C1944.00,307.83 1943.68,303.79 1941.91,297.23 C1937.93,282.45 1937.25,280.71 1931.98,271.50 C1930.41,268.75 1928.66,265.51 1928.10,264.30 C1926.52,260.87 1910.75,245.37 1907.98,244.52 C1906.62,244.10 1904.77,243.12 1903.87,242.33 C1901.26,240.05 1894.80,236.85 1891.00,235.97 C1889.08,235.52 1885.70,234.47 1883.50,233.62 C1880.44,232.45 1875.14,232.08 1861.00,232.04 C1844.73,232.00 1841.71,232.26 1836.00,234.13 C1829.59,236.24 1822.89,239.00 1818.00,241.56 C1816.62,242.28 1813.92,243.66 1812.00,244.62 C1807.80,246.73 1792.60,261.70 1788.28,268.00 C1781.15,278.38 1776.19,290.82 1772.92,306.50 C1771.82,311.80 1771.88,333.32 1773.02,339.00 C1776.31,355.41 1775.84,353.97 1782.58,368.50 C1786.04,375.98 1794.01,386.10 1802.24,393.45 C1808.78,399.31 1810.73,400.63 1817.64,403.88 C1819.92,404.96 1822.08,406.32 1822.45,406.92 C1822.82,407.51 1824.12,408.00 1825.34,408.00 C1826.56,408.00 1828.55,408.70 1829.76,409.55 C1830.98,410.40 1836.12,411.76 1841.19,412.58 C1846.26,413.40 1850.62,414.28 1850.87,414.54 C1852.14,415.81 1872.43,414.78 1880.99,413.02 Z M2272.50,373.48 C2276.90,372.69 2282.21,372.03 2284.29,372.02 C2286.37,372.01 2289.84,371.10 2292.00,370.00 C2294.16,368.90 2296.76,368.00 2297.78,368.00 C2300.66,368.00 2318.66,358.62 2322.99,354.87 C2325.12,353.01 2328.54,350.16 2330.57,348.53 C2334.35,345.50 2345.93,330.97 2349.44,324.87 C2353.52,317.77 2360.00,301.49 2360.00,298.36 C2360.00,297.20 2360.75,294.28 2361.67,291.88 C2364.18,285.29 2364.23,246.42 2361.73,240.12 C2360.78,237.72 2360.00,234.44 2360.00,232.83 C2360.00,231.23 2359.10,228.16 2358.00,226.00 C2356.90,223.84 2355.99,221.27 2355.98,220.29 C2355.97,219.31 2355.08,217.38 2354.00,216.00 C2352.92,214.62 2352.03,212.56 2352.02,211.40 C2352.01,210.25 2351.10,208.50 2350.00,207.50 C2348.90,206.50 2348.00,205.33 2348.00,204.89 C2348.00,202.76 2341.38,194.48 2333.35,186.56 C2326.24,179.56 2324.86,178.41 2319.47,174.98 C2304.62,165.52 2297.14,162.56 2277.85,158.49 C2267.62,156.33 2194.20,156.08 2192.85,158.20 C2191.60,160.18 2191.77,370.71 2193.04,373.07 C2194.03,374.92 2195.47,375.00 2229.29,374.97 C2255.51,374.94 2266.54,374.56 2272.50,373.48 Z M2631.25,292.03 C2632.63,291.97 2632.02,288.71 2629.39,282.14 C2622.17,264.09 2610.13,254.36 2591.54,251.55 C2580.91,249.94 2562.86,251.32 2558.38,254.08 C2556.67,255.14 2554.37,256.00 2553.29,256.00 C2552.20,256.00 2550.50,256.90 2549.50,258.00 C2548.50,259.10 2547.19,260.00 2546.58,260.00 C2544.94,260.00 2532.00,271.94 2532.00,273.46 C2532.00,274.17 2531.34,275.30 2530.53,275.98 C2528.73,277.47 2524.00,287.59 2524.00,289.95 C2524.00,290.90 2524.32,291.98 2524.71,292.37 C2525.20,292.87 2619.76,292.57 2631.25,292.03 Z M232.00,230.21 C228.32,230.02 226.09,229.37 225.25,228.27 C224.32,227.04 224.00,219.74 224.00,199.96 C224.00,175.41 224.14,173.18 225.83,171.65 C227.44,170.20 230.98,170.00 255.29,170.00 C281.04,170.00 283.00,170.13 283.91,171.83 C285.49,174.79 285.34,226.16 283.74,228.34 C282.56,229.96 280.26,230.15 259.97,230.31 C247.61,230.42 235.03,230.37 232.00,230.21 Z M26.99,168.99 C25.33,165.89 25.62,46.86 27.30,41.25 C28.73,36.48 35.31,28.00 37.58,28.00 C38.40,28.00 40.27,27.21 41.74,26.25 C44.26,24.60 56.31,24.49 253.59,24.24 L462.76,23.98L467.75,26.29 C474.37,29.36 477.96,32.52 481.27,38.18 L484.00,42.86L484.00,105.73 C484.00,153.30 483.71,168.89 482.80,169.80 C481.06,171.54 334.94,171.54 333.20,169.80 C332.34,168.94 332.00,162.57 331.98,147.55 C331.98,135.97 331.62,125.95 331.19,125.27 C330.58,124.31 313.61,124.02 255.07,123.98 C213.64,123.95 179.50,124.17 179.21,124.46 C178.91,124.75 178.64,134.60 178.59,146.34 C178.52,162.86 178.19,168.06 177.13,169.34 C175.87,170.86 169.41,171.00 101.91,171.00 C28.98,171.00 28.06,170.98 26.99,168.99 Z" fill="currentColor" fill-rule="evenodd"/></svg>