<svg xmlns="http://www.w3.org/2000/svg" viewBox="0 0 496 608" fill="none" role="img" aria-label="CrystalDent"><path d="M126.50,588.10 C119.88,586.78 108.00,575.79 108.00,570.98 C108.00,570.03 107.35,568.70 106.55,568.04 C105.75,567.38 104.59,565.30 103.97,563.42 C103.35,561.54 102.50,560.00 102.07,560.00 C101.65,560.00 100.58,558.31 99.69,556.25 C98.80,554.19 97.65,551.83 97.14,551.00 C96.63,550.17 95.71,548.38 95.09,547.00 C94.47,545.62 92.89,542.70 91.59,540.50 C90.28,538.30 86.87,532.00 83.99,526.50 C81.12,521.00 77.51,514.25 75.98,511.50 C74.46,508.75 71.57,503.35 69.58,499.50 C66.02,492.61 65.00,490.73 62.99,487.25 C62.43,486.29 61.07,483.70 59.97,481.50 C58.87,479.30 56.19,474.35 54.03,470.50 C51.87,466.65 48.42,460.12 46.37,456.00 C44.31,451.88 41.14,445.95 39.32,442.83 C37.49,439.71 36.00,436.60 36.00,435.91 C36.00,435.22 35.28,433.87 34.41,432.90 C33.54,431.93 31.11,427.85 29.02,423.82 C26.93,419.79 23.71,413.57 21.86,410.00 L18.50,403.50L18.23,314.10 C17.98,232.74 18.10,224.54 19.58,222.91 C21.12,221.21 25.29,221.11 94.01,221.03 C174.42,220.95 169.28,220.52 170.51,227.28 C170.83,229.05 170.93,238.73 170.72,248.80 C170.51,258.86 170.70,267.31 171.13,267.58 C172.26,268.28 321.94,268.15 323.07,267.46 C323.60,267.13 324.00,257.44 324.00,244.98 C324.00,224.04 324.09,223.02 326.01,221.99 C328.59,220.61 471.66,220.75 474.25,222.13 C475.90,223.02 476.00,228.33 475.94,312.79 L475.87,402.50L472.98,408.00 C471.38,411.02 469.17,415.30 468.05,417.50 C466.94,419.70 465.57,422.29 465.01,423.25 C463.06,426.62 462.01,428.53 460.20,432.00 C457.96,436.30 455.97,440.02 454.83,442.00 C454.36,442.82 453.08,445.30 451.98,447.50 C450.88,449.70 448.64,453.97 446.99,456.98 C445.35,459.99 444.00,463.00 444.00,463.66 C444.00,464.32 443.32,465.54 442.49,466.37 C441.66,467.20 439.39,470.94 437.44,474.69 C435.49,478.43 433.50,482.18 433.02,483.00 C432.54,483.82 431.87,485.18 431.52,486.00 C431.18,486.82 429.82,489.30 428.50,491.50 C427.18,493.70 425.04,497.52 423.74,500.00 C422.44,502.48 418.75,509.45 415.53,515.50 C412.32,521.55 407.93,529.88 405.78,534.00 C403.64,538.12 400.74,543.52 399.35,546.00 C396.91,550.33 393.55,556.53 385.54,571.50 C381.09,579.81 379.89,581.26 374.22,585.09 C370.26,587.76 369.17,588.00 361.08,588.00 C353.78,588.00 351.83,587.66 349.73,586.00 C348.33,584.90 346.74,584.00 346.19,584.00 C345.64,584.00 343.91,582.00 342.34,579.56 C334.20,566.85 332.00,563.07 332.00,561.80 C332.00,561.03 331.59,559.97 331.09,559.45 C330.03,558.33 321.26,542.05 319.54,538.00 C319.19,537.17 317.80,534.70 316.46,532.50 C315.11,530.30 313.37,527.13 312.58,525.45 C311.79,523.78 308.64,518.06 305.57,512.76 C302.51,507.45 300.00,502.47 300.00,501.69 C300.00,500.91 299.18,499.20 298.17,497.88 C297.16,496.57 296.04,494.82 295.67,494.00 C295.30,493.18 292.97,488.90 290.51,484.50 C288.04,480.10 285.13,474.70 284.03,472.50 C282.93,470.30 281.62,467.82 281.12,467.00 C280.62,466.18 279.70,464.38 279.08,463.00 C278.46,461.62 276.17,457.35 273.99,453.50 C271.81,449.65 269.35,445.06 268.52,443.31 C264.42,434.59 251.57,428.77 241.50,431.07 C232.42,433.15 228.65,436.72 222.04,449.50 C220.61,452.25 218.73,455.62 217.86,457.00 C216.98,458.38 213.67,464.45 210.49,470.50 C207.32,476.55 202.45,485.77 199.67,491.00 C196.90,496.23 193.72,502.30 192.62,504.50 C191.51,506.70 190.30,508.73 189.92,509.00 C189.54,509.27 188.51,511.07 187.63,513.00 C186.76,514.92 185.58,517.29 185.02,518.25 C183.59,520.71 182.86,522.09 176.39,534.50 C173.24,540.55 169.50,547.63 168.08,550.24 C166.66,552.85 164.17,557.57 162.55,560.74 C160.93,563.91 158.85,567.40 157.93,568.50 C157.01,569.60 155.99,571.65 155.66,573.06 C155.06,575.63 149.56,581.71 144.32,585.60 C141.29,587.84 131.88,589.17 126.50,588.10 Z M224.00,222.21 C220.32,222.02 218.09,221.37 217.25,220.27 C216.32,219.04 216.00,211.74 216.00,191.96 C216.00,167.41 216.14,165.18 217.83,163.65 C219.44,162.20 222.98,162.00 247.29,162.00 C273.04,162.00 275.00,162.13 275.91,163.83 C277.49,166.79 277.34,218.16 275.74,220.34 C274.56,221.96 272.26,222.15 251.97,222.31 C239.61,222.42 227.03,222.37 224.00,222.21 Z M18.99,160.99 C17.33,157.89 17.62,38.86 19.30,33.25 C20.73,28.48 27.31,20.00 29.58,20.00 C30.40,20.00 32.27,19.21 33.74,18.25 C36.26,16.60 48.31,16.49 245.59,16.24 L454.76,15.98L459.75,18.29 C466.37,21.36 469.96,24.52 473.27,30.18 L476.00,34.86L476.00,97.73 C476.00,145.30 475.71,160.89 474.80,161.80 C473.06,163.54 326.94,163.54 325.20,161.80 C324.34,160.94 324.00,154.57 323.98,139.55 C323.98,127.97 323.62,117.95 323.19,117.27 C322.58,116.31 305.61,116.02 247.07,115.98 C205.64,115.95 171.50,116.17 171.21,116.46 C170.91,116.75 170.64,126.60 170.59,138.34 C170.52,154.86 170.19,160.06 169.13,161.34 C167.87,162.86 161.41,163.00 93.91,163.00 C20.98,163.00 20.06,162.98 18.99,160.99 Z" fill="currentColor" fill-rule="evenodd"/></svg>