<svg xmlns="http://www.w3.org/2000/svg" viewBox="0 0 2520 464" fill="none" role="img" aria-label="CrystalDent"><path d="M555.49,446.74 C554.67,446.28 554.00,445.24 554.00,444.44 C554.00,443.23 563.89,422.23 566.92,417.00 C567.40,416.18 569.90,411.00 572.49,405.50 C575.07,400.00 577.59,394.82 578.10,394.00 C578.60,393.18 579.27,391.82 579.58,391.00 C580.44,388.75 592.03,364.73 593.09,363.00 C593.60,362.18 594.52,360.38 595.13,359.00 C596.59,355.72 601.17,346.52 602.74,343.71 C604.48,340.59 604.30,338.65 602.00,335.73 C600.90,334.33 600.00,332.43 600.00,331.50 C600.00,330.57 599.10,328.67 598.00,327.27 C596.90,325.87 596.00,324.09 596.00,323.31 C596.00,322.53 595.15,320.23 594.12,318.20 C593.09,316.16 591.29,312.36 590.12,309.75 C586.70,302.09 584.13,296.29 582.14,291.75 C577.87,282.02 576.18,278.27 574.14,274.00 C572.96,271.52 571.99,268.82 571.97,268.00 C571.96,267.18 571.08,265.38 570.00,264.00 C568.92,262.62 568.03,260.91 568.02,260.20 C568.01,259.48 567.16,257.23 566.13,255.20 C565.10,253.16 563.36,249.47 562.25,247.00 C561.15,244.53 558.39,238.57 556.12,233.77 C553.85,228.97 551.99,224.24 551.98,223.27 C551.97,222.30 551.08,220.38 550.00,219.00 C548.92,217.62 548.03,215.89 548.02,215.14 C548.01,214.39 547.17,212.14 546.16,210.14 C545.15,208.14 543.30,204.25 542.04,201.50 C540.78,198.75 538.91,194.84 537.88,192.80 C536.85,190.77 536.00,188.36 536.00,187.46 C536.00,186.56 535.10,184.67 534.00,183.27 C532.90,181.87 532.00,180.06 532.00,179.25 C532.00,178.44 531.17,176.14 530.16,174.14 C529.15,172.14 527.41,168.47 526.30,166.00 C520.83,153.86 519.63,151.24 518.00,148.00 C517.04,146.07 515.93,143.04 515.55,141.26 C515.16,139.48 514.43,137.77 513.92,137.45 C512.42,136.53 512.87,133.26 514.58,132.61 C517.62,131.44 535.55,131.95 537.18,133.25 C538.04,133.94 539.98,136.97 541.50,140.00 C543.02,143.03 545.11,147.16 546.13,149.20 C547.16,151.23 548.00,153.62 548.00,154.50 C548.00,155.38 548.85,157.77 549.88,159.80 C550.91,161.84 552.67,165.53 553.80,168.00 C554.92,170.47 557.60,176.32 559.76,181.00 C561.92,185.68 564.71,192.20 565.96,195.50 C567.21,198.80 568.63,202.29 569.12,203.25 C570.04,205.07 570.29,205.59 573.85,213.00 C575.03,215.47 576.01,218.18 576.01,219.00 C576.01,219.82 576.91,221.85 578.00,223.50 C579.09,225.15 579.99,227.33 579.99,228.34 C580.00,229.36 580.90,231.33 582.00,232.73 C583.10,234.13 584.00,236.00 584.01,236.88 C584.01,237.77 584.91,239.85 586.00,241.50 C587.09,243.15 587.99,245.45 587.99,246.62 C588.00,247.78 588.90,249.87 590.00,251.27 C591.10,252.67 592.00,254.56 592.00,255.46 C592.00,256.36 592.96,258.99 594.14,261.30 C599.33,271.46 600.00,273.00 600.00,274.81 C600.00,275.87 600.90,277.87 602.00,279.27 C603.10,280.67 604.00,282.56 604.00,283.46 C604.00,284.36 604.98,286.99 606.17,289.30 C607.37,291.61 608.72,294.29 609.17,295.25 C609.63,296.21 610.40,297.79 610.89,298.75 C611.37,299.71 612.81,302.88 614.07,305.79 C616.56,311.50 618.85,312.35 620.04,308.00 C620.41,306.62 623.26,300.20 626.36,293.71 C629.46,287.23 632.00,281.57 632.00,281.12 C632.00,280.68 633.30,277.66 634.88,274.41 C638.94,266.10 648.73,244.70 652.91,235.00 C653.50,233.62 654.36,231.82 654.82,231.00 C657.95,225.39 660.00,220.89 660.00,219.63 C660.00,218.82 661.87,214.41 664.16,209.83 C666.45,205.25 669.22,199.47 670.31,197.00 C674.08,188.44 675.83,184.48 677.81,180.00 C678.90,177.53 681.70,171.45 684.01,166.50 C686.33,161.55 689.13,155.47 690.23,153.00 C691.34,150.53 693.09,146.84 694.12,144.80 C695.15,142.77 696.00,140.44 696.00,139.63 C696.00,138.82 697.18,136.75 698.62,135.05 L701.23,131.94L712.26,132.22 C726.80,132.59 726.87,132.70 720.54,145.65 C716.12,154.70 713.98,159.29 711.09,166.00 C710.50,167.38 709.60,169.18 709.09,170.00 C708.58,170.82 706.27,175.55 703.95,180.50 C695.92,197.69 694.74,200.05 693.87,200.58 C693.39,200.88 693.00,201.83 693.00,202.70 C693.00,203.57 690.91,208.60 688.37,213.89 C685.82,219.17 682.82,225.53 681.71,228.00 C680.60,230.47 679.24,233.40 678.69,234.50 C678.14,235.60 677.37,237.18 676.99,238.00 C671.54,249.76 665.98,261.44 665.08,263.00 C664.61,263.82 663.22,266.98 662.00,270.00 C660.77,273.02 659.31,276.38 658.75,277.46 C658.18,278.54 656.69,281.36 655.43,283.72 C654.18,286.08 652.64,289.55 652.02,291.43 C651.40,293.30 650.25,295.38 649.45,296.04 C648.65,296.70 647.99,298.20 647.98,299.37 C647.97,300.54 647.08,302.62 646.00,304.00 C644.92,305.38 644.03,307.09 644.02,307.80 C644.01,308.52 643.12,310.77 642.05,312.80 C640.97,314.84 637.55,321.90 634.43,328.50 C631.31,335.10 626.85,344.55 624.52,349.50 C622.18,354.45 619.21,360.98 617.92,364.00 C616.62,367.02 614.76,370.57 613.78,371.88 C612.80,373.20 612.00,374.91 612.00,375.69 C612.00,376.47 611.16,378.77 610.13,380.80 C609.10,382.84 606.46,388.32 604.26,393.00 C602.06,397.68 598.44,405.32 596.22,410.00 C594.00,414.68 590.29,422.55 587.98,427.50 C585.66,432.45 583.13,437.62 582.34,439.00 C581.55,440.38 580.43,442.74 579.85,444.25 C579.28,445.76 578.51,447.01 578.15,447.03 C568.10,447.52 556.63,447.37 555.49,446.74 Z M156.00,356.51 C149.12,355.83 141.83,354.54 139.78,353.64 C137.74,352.74 134.91,352.00 133.49,352.00 C132.08,352.00 129.16,351.10 127.00,350.00 C124.84,348.90 122.44,348.00 121.66,348.00 C119.65,348.00 94.41,335.20 92.96,333.45 C92.30,332.65 91.16,332.00 90.44,332.00 C86.78,332.00 57.87,305.49 51.63,296.41 C40.41,280.09 39.25,278.07 29.90,258.50 C28.85,256.30 28.00,253.92 28.00,253.21 C28.00,252.50 27.10,250.16 26.00,248.00 C24.90,245.84 23.98,242.82 23.96,241.29 C23.93,239.76 23.23,236.70 22.39,234.50 C20.90,230.58 18.46,212.36 17.30,196.50 C16.72,188.58 19.03,162.36 21.13,153.00 C23.78,141.23 24.90,137.27 26.38,134.50 C27.27,132.85 27.99,130.60 28.00,129.50 C28.01,128.40 28.91,126.15 30.00,124.50 C31.09,122.85 32.00,120.60 32.02,119.50 C32.03,118.40 32.92,116.38 34.00,115.00 C35.08,113.62 35.97,112.08 35.98,111.56 C36.01,110.24 43.67,97.58 48.47,90.90 C55.09,81.72 68.89,67.35 78.71,59.43 C83.78,55.34 88.33,52.00 88.84,52.00 C89.34,52.00 90.34,51.30 91.05,50.44 C91.76,49.59 93.73,48.24 95.42,47.45 C97.11,46.66 100.75,44.69 103.50,43.08 C106.25,41.46 109.23,40.10 110.12,40.07 C111.00,40.03 112.80,39.17 114.12,38.16 C115.43,37.15 118.30,35.84 120.50,35.25 C122.70,34.66 125.85,33.73 127.50,33.18 C145.24,27.26 164.86,24.48 183.25,25.30 C198.60,25.99 215.35,28.30 220.22,30.40 C222.26,31.28 225.06,32.00 226.44,32.00 C227.82,32.00 230.87,32.87 233.22,33.93 C235.58,35.00 239.75,36.84 242.50,38.02 C259.08,45.17 270.48,52.30 284.82,64.50 C287.41,66.70 290.76,69.46 292.26,70.64 C293.77,71.82 295.00,73.44 295.00,74.23 C295.00,75.80 279.43,92.00 277.92,92.00 C277.41,92.00 275.32,90.15 273.27,87.88 C269.51,83.71 256.76,72.96 254.00,71.63 C253.18,71.23 250.70,69.80 248.50,68.46 C246.30,67.11 242.93,65.30 241.00,64.43 C239.07,63.55 234.22,61.30 230.21,59.42 C226.20,57.54 222.15,56.00 221.21,56.00 C220.27,56.00 216.80,55.11 213.50,54.03 C205.66,51.45 183.71,49.52 171.43,50.33 C157.56,51.24 144.94,53.08 141.80,54.65 C140.31,55.39 138.06,56.00 136.80,56.01 C135.53,56.01 133.15,56.91 131.50,58.00 C129.85,59.09 127.55,59.99 126.38,59.99 C125.22,60.00 123.13,60.90 121.73,62.00 C120.33,63.10 118.53,64.00 117.73,64.00 C116.93,64.00 115.19,64.79 113.87,65.75 C110.49,68.22 107.89,69.83 105.00,71.23 C96.61,75.29 70.84,100.68 67.69,108.00 C67.33,108.83 65.92,111.30 64.55,113.50 C62.24,117.21 59.60,122.43 54.87,132.60 C52.41,137.90 50.74,143.61 46.31,162.00 C43.76,172.58 43.76,213.22 46.32,219.88 C47.24,222.28 48.00,225.72 48.00,227.52 C48.00,229.31 48.89,232.74 49.98,235.14 C51.07,237.54 51.97,240.54 51.98,241.80 C51.99,243.07 52.86,245.77 53.91,247.80 C54.96,249.84 57.55,255.09 59.66,259.48 C61.77,263.86 64.51,268.95 65.75,270.77 C66.99,272.60 68.00,274.31 68.00,274.57 C68.00,274.84 70.70,278.59 73.99,282.91 C80.92,291.99 94.20,304.89 102.48,310.57 C109.55,315.42 125.78,324.00 127.92,324.01 C128.79,324.01 130.85,324.91 132.50,326.00 C134.15,327.09 136.75,327.99 138.28,327.99 C139.81,328.00 142.74,328.70 144.78,329.56 C154.53,333.64 205.89,333.70 213.74,329.63 C215.48,328.73 218.16,327.98 219.70,327.97 C221.24,327.95 224.30,327.06 226.50,326.00 C228.70,324.94 230.87,324.05 231.32,324.03 C233.17,323.96 251.56,314.59 252.30,313.35 C252.74,312.61 253.50,312.00 254.00,312.00 C255.91,312.00 264.80,305.27 271.43,298.82 C275.25,295.10 279.20,291.94 280.22,291.78 C281.41,291.60 284.76,294.16 289.55,298.93 C295.48,304.82 296.89,306.78 296.37,308.40 C295.30,311.78 283.76,322.17 275.15,327.50 C274.26,328.05 272.94,329.29 272.21,330.25 C271.48,331.21 270.29,332.00 269.57,332.00 C268.84,332.00 267.66,332.70 266.95,333.56 C266.24,334.41 264.27,335.76 262.58,336.54 C259.56,337.93 258.18,338.74 252.85,342.25 C251.39,343.21 249.64,344.00 248.96,344.00 C248.28,344.00 245.87,344.84 243.61,345.88 C236.16,349.28 228.49,352.00 226.36,352.00 C225.20,352.00 222.28,352.72 219.88,353.61 C214.35,355.64 191.60,357.96 178.50,357.84 C173.00,357.79 162.88,357.19 156.00,356.51 Z M812.50,356.47 C807.00,355.74 799.35,353.97 795.50,352.51 C791.65,351.06 787.15,349.38 785.50,348.78 C783.85,348.18 781.31,346.86 779.85,345.85 C778.39,344.83 776.77,344.00 776.25,344.00 C775.73,344.00 774.50,343.10 773.50,342.00 C772.50,340.90 771.33,340.00 770.90,340.00 C770.05,340.00 758.31,331.31 755.09,328.29 C750.67,324.16 747.21,318.91 747.70,317.05 C748.25,314.95 760.23,303.00 761.78,303.00 C762.31,303.00 765.16,305.73 768.12,309.06 C773.75,315.40 785.19,324.04 792.00,327.10 C793.38,327.72 795.84,328.94 797.48,329.81 C799.12,330.68 802.27,331.69 804.48,332.07 C806.69,332.44 811.18,333.48 814.46,334.37 C822.50,336.57 844.81,336.56 850.50,334.37 C852.70,333.52 856.41,332.49 858.75,332.07 C861.08,331.66 863.82,330.57 864.82,329.66 C865.83,328.75 867.02,328.00 867.47,328.00 C869.34,328.00 879.00,318.68 881.44,314.52 C883.88,310.36 884.08,309.09 884.21,297.50 C884.34,286.07 884.16,284.71 882.18,282.02 C880.98,280.41 880.00,278.65 880.00,278.12 C880.00,276.62 865.76,264.00 864.04,263.98 C863.19,263.97 861.38,263.08 860.00,262.00 C858.62,260.92 856.92,260.03 856.21,260.02 C855.50,260.01 853.16,259.10 851.00,258.00 C848.84,256.90 846.27,256.00 845.28,256.00 C844.28,256.00 841.79,255.10 839.74,254.00 C837.69,252.90 834.77,251.98 833.25,251.97 C831.74,251.95 828.70,251.06 826.50,250.00 C824.30,248.94 821.61,248.05 820.52,248.03 C818.23,247.99 809.17,244.68 803.80,241.91 C801.77,240.86 799.29,240.00 798.30,239.99 C797.31,239.99 795.15,239.09 793.50,238.00 C791.85,236.91 789.78,236.01 788.90,236.01 C788.03,236.00 786.50,235.10 785.50,234.00 C784.50,232.90 783.25,232.00 782.71,232.00 C782.17,232.00 780.69,230.99 779.42,229.75 C778.15,228.51 775.91,226.38 774.45,225.00 C769.63,220.46 764.00,212.85 764.00,210.88 C764.00,209.81 763.21,207.73 762.25,206.26 C760.86,204.14 760.43,200.85 760.15,190.22 C759.84,178.43 760.07,175.99 762.09,169.67 C763.35,165.73 765.92,160.25 767.81,157.50 C772.59,150.52 780.84,142.18 785.00,140.12 C789.19,138.03 791.17,137.03 796.70,134.17 C799.01,132.98 801.97,132.00 803.29,132.00 C804.61,132.00 808.30,131.10 811.50,130.00 C819.24,127.34 844.36,127.12 853.54,129.63 C856.82,130.53 861.52,131.59 864.00,131.99 C866.48,132.38 869.85,133.44 871.50,134.35 C873.15,135.25 875.23,135.99 876.12,135.99 C877.00,136.00 878.87,136.90 880.27,138.00 C881.67,139.10 883.29,140.00 883.88,140.00 C887.62,140.00 908.00,157.92 908.00,161.21 C908.00,161.96 904.80,165.81 900.89,169.76 C892.92,177.83 893.06,177.82 886.50,171.00 C881.61,165.92 876.40,162.34 868.50,158.64 C865.20,157.09 860.84,154.97 858.80,153.91 C856.77,152.86 853.17,152.00 850.80,151.99 C848.44,151.99 843.58,151.49 840.00,150.89 C831.34,149.44 812.08,151.27 806.80,154.05 C804.77,155.12 802.57,156.00 801.91,156.00 C799.47,156.00 790.10,165.16 787.10,170.48 C784.20,175.61 784.00,176.63 784.00,186.02 C784.00,195.16 784.25,196.50 786.75,200.84 C789.66,205.88 800.09,216.00 802.38,216.00 C803.12,216.00 804.80,216.83 806.12,217.85 C807.43,218.87 809.62,219.96 811.00,220.27 C813.75,220.90 820.78,223.24 828.52,226.13 C831.28,227.16 834.56,228.00 835.82,228.00 C837.07,228.00 839.54,228.76 841.30,229.68 C843.06,230.60 846.30,231.69 848.50,232.10 C853.79,233.08 864.25,236.97 872.04,240.86 C875.49,242.59 878.73,244.00 879.24,244.00 C880.87,244.00 894.63,255.78 898.76,260.72 C901.30,263.74 903.76,268.36 905.45,273.27 C907.86,280.24 908.14,282.52 908.22,295.76 C908.31,308.86 908.08,311.02 906.16,315.20 C904.97,317.78 904.00,320.33 904.00,320.88 C904.00,325.12 884.36,346.38 879.30,347.62 C877.76,348.00 875.43,349.14 874.12,350.15 C872.80,351.17 870.54,352.00 869.09,352.00 C867.63,352.00 865.38,352.75 864.08,353.66 C861.21,355.67 843.10,357.97 831.00,357.85 C826.33,357.81 818.00,357.19 812.50,356.47 Z M1200.00,356.53 C1190.14,355.32 1182.16,353.12 1175.80,349.88 C1173.77,348.85 1171.24,348.00 1170.17,348.00 C1169.11,348.00 1167.70,347.34 1167.03,346.54 C1166.37,345.74 1164.86,344.77 1163.68,344.40 C1157.55,342.45 1140.44,328.24 1132.45,318.46 C1123.54,307.56 1112.00,286.43 1112.00,281.01 C1112.00,279.95 1111.03,276.69 1109.84,273.79 C1107.85,268.90 1107.67,266.67 1107.59,244.50 C1107.51,222.00 1107.64,220.11 1109.75,214.25 C1110.99,210.81 1112.00,207.11 1112.00,206.02 C1112.00,204.14 1113.71,199.87 1118.42,190.00 C1121.67,183.20 1129.26,172.16 1134.93,166.00 C1137.71,162.97 1139.99,160.25 1140.00,159.95 C1140.00,159.10 1153.73,148.00 1154.77,148.00 C1155.28,148.00 1156.50,147.10 1157.50,146.00 C1158.50,144.90 1159.85,144.00 1160.50,144.00 C1161.15,144.00 1162.50,143.10 1163.50,142.00 C1164.50,140.90 1165.94,140.00 1166.71,140.00 C1167.48,140.00 1169.77,139.15 1171.80,138.10 C1179.13,134.35 1185.10,132.00 1187.31,132.00 C1188.55,132.00 1192.13,131.10 1195.26,130.00 C1202.83,127.34 1228.33,127.11 1237.54,129.63 C1240.82,130.52 1245.30,131.58 1247.50,131.97 C1249.70,132.37 1253.30,133.50 1255.50,134.48 C1263.49,138.06 1270.52,141.47 1271.50,142.24 C1272.05,142.68 1273.92,144.04 1275.65,145.27 C1283.08,150.52 1286.76,153.73 1290.83,158.46 C1296.14,164.65 1300.75,170.74 1301.24,172.23 C1301.45,172.85 1302.15,173.02 1302.81,172.62 C1303.66,172.09 1304.00,166.52 1304.00,152.98 C1304.00,135.03 1304.10,134.02 1306.02,132.99 C1307.96,131.95 1322.62,131.72 1326.25,132.68 C1327.90,133.11 1328.00,139.18 1328.00,242.51 C1328.00,312.81 1327.65,352.10 1327.02,352.49 C1326.48,352.82 1321.56,353.27 1316.09,353.48 C1308.90,353.76 1305.85,353.52 1305.09,352.61 C1304.47,351.86 1303.94,343.73 1303.77,332.51 C1303.58,319.19 1303.16,313.55 1302.33,313.27 C1301.68,313.06 1299.92,315.05 1298.41,317.69 C1293.88,325.62 1276.74,341.50 1266.63,347.13 C1262.66,349.35 1255.99,352.00 1254.39,352.01 C1253.35,352.01 1251.15,352.75 1249.50,353.66 C1245.83,355.67 1228.36,357.94 1217.50,357.81 C1213.10,357.75 1205.22,357.18 1200.00,356.53 Z M1924.00,356.10 C1919.88,355.68 1914.35,354.59 1911.72,353.67 C1909.08,352.75 1905.71,352.00 1904.22,352.00 C1902.72,351.99 1900.03,351.09 1898.23,350.00 C1896.43,348.90 1894.12,348.00 1893.11,348.00 C1892.10,348.00 1890.13,347.10 1888.73,346.00 C1887.33,344.90 1885.45,344.00 1884.55,344.00 C1883.65,344.00 1881.70,343.17 1880.21,342.15 C1878.72,341.13 1874.14,338.09 1870.03,335.40 C1858.97,328.15 1844.04,312.81 1838.11,302.63 C1836.79,300.36 1834.88,297.57 1833.86,296.44 C1832.83,295.30 1832.00,293.73 1831.99,292.94 C1831.99,292.15 1831.09,290.15 1830.00,288.50 C1828.91,286.85 1828.01,284.72 1828.01,283.78 C1828.00,282.83 1827.14,280.13 1826.10,277.78 C1824.30,273.72 1823.28,269.65 1820.89,257.00 C1819.32,248.67 1820.33,216.49 1822.32,211.50 C1823.20,209.30 1823.93,206.04 1823.96,204.25 C1823.98,202.46 1824.90,199.31 1826.00,197.26 C1827.10,195.21 1828.00,192.69 1828.00,191.67 C1828.00,190.65 1828.90,188.67 1830.00,187.27 C1831.10,185.87 1832.00,184.00 1832.00,183.12 C1832.00,182.23 1833.80,178.91 1836.00,175.74 C1838.20,172.57 1840.00,169.69 1840.00,169.35 C1840.00,168.68 1847.72,159.44 1852.00,154.98 C1856.55,150.23 1868.65,140.00 1869.71,140.00 C1870.29,140.00 1871.34,139.30 1872.05,138.44 C1872.76,137.59 1874.73,136.24 1876.42,135.45 C1878.11,134.66 1881.75,132.69 1884.50,131.08 C1887.25,129.46 1890.31,128.10 1891.30,128.07 C1892.29,128.03 1894.77,127.14 1896.80,126.10 C1902.88,122.97 1910.89,120.72 1918.93,119.89 C1923.09,119.45 1929.37,118.78 1932.88,118.40 C1941.73,117.43 1967.34,119.84 1972.83,122.17 C1975.22,123.17 1977.87,124.00 1978.72,124.00 C1980.20,124.00 1982.74,125.07 1994.67,130.71 C1997.52,132.06 2000.09,133.80 2000.39,134.58 C2000.69,135.36 2001.60,136.00 2002.40,136.00 C2006.23,136.00 2028.01,156.26 2031.56,163.12 C2032.41,164.76 2033.87,166.88 2034.80,167.83 C2035.74,168.77 2037.24,171.11 2038.14,173.02 C2039.04,174.94 2041.62,180.21 2043.89,184.74 C2046.15,189.28 2048.00,194.14 2048.00,195.54 C2048.00,196.95 2048.70,199.46 2049.56,201.11 C2051.80,205.46 2053.28,226.11 2052.47,241.91 C2051.84,254.15 2051.58,255.52 2049.43,257.66 L2047.09,260.00L1965.55,260.00 C1901.04,260.00 1883.98,260.26 1883.88,261.25 C1883.06,270.21 1898.21,290.80 1909.55,296.13 C1912.01,297.29 1914.27,298.63 1914.57,299.12 C1914.87,299.60 1915.93,300.00 1916.93,300.00 C1917.93,300.00 1920.89,300.95 1923.51,302.11 C1927.90,304.05 1929.69,304.19 1946.43,303.85 C1961.63,303.55 1965.03,303.21 1967.26,301.75 C1968.73,300.79 1970.80,300.00 1971.87,300.00 C1975.14,300.00 1984.12,294.95 1991.73,288.82 C1995.71,285.62 1999.67,283.00 2000.53,283.00 C2002.50,283.00 2036.00,316.12 2036.00,318.06 C2036.00,319.58 2025.41,330.52 2022.12,332.39 C2021.05,333.00 2018.22,334.85 2015.84,336.50 C2013.45,338.15 2008.93,340.78 2005.79,342.35 C2002.65,343.92 1999.56,345.83 1998.92,346.60 C1998.28,347.37 1996.57,348.00 1995.13,348.01 C1993.68,348.01 1991.15,348.91 1989.50,350.00 C1987.85,351.09 1985.05,351.99 1983.29,351.99 C1981.52,352.00 1977.81,352.89 1975.05,353.98 C1970.84,355.64 1966.90,356.03 1950.76,356.40 C1940.17,356.65 1928.12,356.51 1924.00,356.10 Z M357.98,352.80 C356.89,352.39 355.99,351.49 355.98,350.78 C355.97,350.08 355.98,301.12 355.99,242.00 C356.01,141.00 356.12,134.42 357.76,133.18 C360.29,131.26 377.72,131.93 379.02,134.00 C379.54,134.82 379.98,141.01 379.98,147.75 C380.00,157.51 380.28,160.00 381.38,160.00 C382.15,160.00 383.49,158.91 384.36,157.57 C386.89,153.72 400.96,140.00 402.39,140.00 C403.11,140.00 404.50,139.10 405.50,138.00 C406.50,136.90 408.03,136.00 408.90,135.99 C409.78,135.99 411.85,135.09 413.50,134.00 C415.15,132.91 417.42,132.01 418.53,132.01 C419.65,132.00 423.25,131.05 426.53,129.89 C431.85,128.02 434.08,127.84 447.00,128.25 C457.87,128.59 462.25,129.12 464.50,130.35 C466.15,131.25 468.62,131.99 470.00,132.00 C471.38,132.01 473.85,132.91 475.50,134.00 C477.15,135.09 479.05,135.99 479.71,135.99 C480.38,136.00 482.86,137.36 485.21,139.03 C487.57,140.70 490.62,142.84 492.00,143.78 C496.97,147.20 500.00,150.37 500.00,152.16 C500.00,154.26 487.08,168.00 485.10,168.00 C484.37,168.00 481.69,166.25 479.14,164.12 C476.59,161.98 471.35,158.49 467.50,156.37 L460.50,152.50L442.75,152.15 C426.17,151.83 424.76,151.94 421.44,153.90 C419.49,155.06 417.19,156.00 416.35,156.00 C415.51,156.00 413.67,156.90 412.27,158.00 C410.87,159.10 409.18,160.00 408.50,160.00 C407.83,160.00 404.12,163.04 400.27,166.75 C392.75,174.01 384.00,187.85 384.00,192.50 C384.00,193.93 383.21,196.54 382.25,198.30 C380.64,201.25 380.48,207.28 380.20,276.17 C379.95,339.80 379.69,351.01 378.46,352.03 C376.84,353.37 361.12,353.96 357.98,352.80 Z M1001.11,352.71 C1000.31,351.91 1000.00,324.48 1000.00,254.50 C1000.00,180.31 999.72,157.12 998.80,156.20 C997.93,155.33 990.45,155.00 971.42,155.00 C950.99,155.00 945.01,154.71 944.15,153.68 C942.61,151.83 942.40,137.00 943.87,134.24 C945.07,132.00 945.11,132.00 972.04,132.00 C986.87,132.00 999.10,131.89 999.22,131.75 C999.35,131.61 999.69,111.03 999.97,86.00 L1000.50,40.50L1012.00,40.50 L1023.50,40.50L1024.00,86.00 L1024.50,131.50L1051.00,132.00 C1065.58,132.28 1078.00,132.83 1078.62,133.23 C1080.02,134.14 1081.03,149.70 1079.89,152.75 L1079.05,155.00L1052.13,155.00 C1028.51,155.00 1025.14,155.19 1024.61,156.58 C1024.27,157.45 1024.00,201.79 1024.00,255.11 C1024.00,331.80 1023.74,352.14 1022.75,352.45 C1019.28,353.53 1002.13,353.73 1001.11,352.71 Z M1400.75,353.00 C1399.09,351.96 1399.00,342.94 1399.00,186.56 C1399.00,36.71 1399.15,21.16 1400.58,20.61 C1403.56,19.46 1421.54,19.94 1422.80,21.20 C1424.26,22.66 1424.57,351.53 1423.12,352.43 C1421.21,353.60 1402.48,354.08 1400.75,353.00 Z M1488.71,351.38 C1488.32,350.99 1488.00,276.55 1488.00,185.96 C1488.00,45.53 1488.21,21.07 1489.41,20.08 C1490.46,19.20 1510.10,18.98 1567.66,19.22 C1644.09,19.52 1644.55,19.54 1654.00,21.84 C1659.22,23.12 1666.20,25.02 1669.50,26.08 C1672.80,27.14 1676.54,28.00 1677.80,28.00 C1679.07,28.00 1681.77,28.85 1683.80,29.88 C1687.21,31.61 1692.83,34.21 1699.00,36.90 C1700.38,37.49 1702.17,38.41 1703.00,38.92 C1703.83,39.43 1705.17,40.13 1706.00,40.48 C1717.47,45.22 1742.88,66.66 1755.24,82.04 C1759.70,87.57 1768.00,99.87 1768.00,100.92 C1768.00,101.34 1768.90,102.50 1770.00,103.50 C1771.10,104.50 1772.00,106.04 1772.00,106.93 C1772.00,107.82 1772.79,109.67 1773.75,111.03 C1775.43,113.40 1776.30,115.37 1779.05,123.00 C1779.74,124.92 1781.08,128.53 1782.03,131.00 C1782.98,133.47 1784.08,137.30 1784.47,139.50 C1784.86,141.70 1785.65,144.06 1786.22,144.75 C1786.79,145.44 1787.64,149.49 1788.11,153.75 C1788.59,158.01 1789.41,164.65 1789.95,168.50 C1791.22,177.55 1791.21,192.50 1789.92,202.00 C1789.36,206.12 1788.55,212.43 1788.11,216.00 C1787.10,224.25 1784.30,235.31 1781.88,240.61 C1780.84,242.87 1780.00,245.41 1780.00,246.26 C1780.00,247.10 1778.45,250.88 1776.55,254.65 C1774.65,258.42 1772.40,263.07 1771.54,265.00 C1767.11,274.97 1753.08,294.19 1743.55,303.35 C1734.54,312.01 1718.41,324.61 1713.00,327.22 C1711.62,327.88 1709.43,329.23 1708.12,330.21 C1706.80,331.19 1704.96,332.00 1704.02,332.00 C1703.08,332.00 1701.50,332.90 1700.50,334.00 C1699.50,335.10 1697.80,336.00 1696.71,336.00 C1695.63,336.00 1693.33,336.85 1691.62,337.89 C1689.90,338.93 1687.07,340.09 1685.32,340.46 C1683.57,340.83 1681.60,341.77 1680.95,342.56 C1680.29,343.35 1678.44,344.00 1676.83,344.00 C1675.22,344.00 1672.60,344.67 1671.01,345.50 C1669.42,346.32 1665.05,347.43 1661.31,347.97 C1657.56,348.52 1652.92,349.51 1651.00,350.19 C1648.37,351.12 1627.83,351.51 1568.46,351.76 C1524.99,351.94 1489.10,351.77 1488.71,351.38 Z M2091.72,351.39 C2091.37,351.04 2091.07,300.11 2091.06,238.21 C2091.04,155.82 2091.33,125.30 2092.16,124.31 C2093.07,123.21 2098.86,122.96 2121.96,123.05 C2137.73,123.10 2151.27,123.55 2152.06,124.04 C2153.03,124.63 2153.66,127.45 2154.00,132.71 C2154.45,139.77 2154.70,140.53 2156.68,140.81 C2158.08,141.01 2159.26,140.38 2159.96,139.07 C2160.57,137.94 2162.28,136.33 2163.78,135.48 C2165.28,134.63 2167.85,133.06 2169.50,131.98 C2171.15,130.90 2173.40,129.62 2174.50,129.12 C2175.60,128.63 2177.62,127.73 2179.00,127.12 C2180.38,126.51 2182.18,125.62 2183.00,125.15 C2194.05,118.76 2232.04,116.89 2245.52,122.07 C2248.28,123.13 2251.26,124.00 2252.13,124.00 C2253.01,124.00 2254.81,124.79 2256.13,125.75 C2259.05,127.89 2261.56,129.46 2265.50,131.62 C2276.17,137.49 2291.14,153.47 2296.77,165.00 C2297.44,166.38 2298.36,168.18 2298.82,169.00 C2302.39,175.40 2304.00,179.26 2304.00,181.43 C2304.00,182.82 2304.79,185.88 2305.75,188.23 C2307.37,192.17 2307.50,198.58 2307.50,272.00 L2307.50,351.50L2277.06,351.76 C2259.73,351.92 2246.24,351.64 2245.72,351.12 C2245.19,350.59 2244.85,324.30 2244.91,288.36 C2245.02,220.95 2244.38,206.63 2240.97,199.94 C2239.78,197.62 2238.40,195.22 2237.90,194.61 C2237.39,194.00 2236.03,192.24 2234.88,190.70 C2232.57,187.62 2222.71,180.00 2221.04,180.00 C2220.46,180.00 2218.31,179.10 2216.26,178.00 C2210.83,175.09 2189.57,175.11 2183.14,178.02 C2180.74,179.11 2178.36,180.00 2177.85,180.00 C2174.60,180.00 2160.00,193.54 2160.00,196.56 C2160.00,197.73 2159.14,199.46 2158.10,200.41 C2157.05,201.36 2155.87,204.01 2155.48,206.32 C2155.08,208.62 2154.47,242.22 2154.13,281.00 L2153.50,351.50L2122.93,351.76 C2106.12,351.91 2092.07,351.74 2091.72,351.39 Z M2388.67,351.33 C2388.30,350.97 2388.00,312.29 2388.00,265.39 C2388.00,218.49 2387.64,179.89 2387.19,179.62 C2386.75,179.35 2375.61,179.02 2362.44,178.89 C2342.94,178.71 2338.18,178.39 2336.75,177.18 C2335.17,175.83 2335.00,173.26 2335.00,150.47 C2335.00,131.51 2335.31,124.99 2336.25,124.21 C2337.03,123.57 2346.79,123.13 2361.96,123.05 C2379.94,122.96 2386.63,122.61 2387.20,121.71 C2387.62,121.05 2387.98,100.23 2387.98,75.45 C2388.00,41.76 2388.30,30.10 2389.20,29.20 C2390.08,28.32 2398.12,28.00 2419.13,28.00 C2443.91,28.00 2448.07,28.22 2449.43,29.57 C2450.81,30.95 2451.00,36.55 2451.02,75.82 C2451.02,100.39 2451.43,121.13 2451.92,121.90 C2452.63,123.03 2457.59,123.34 2477.65,123.49 C2491.32,123.60 2502.84,123.75 2503.25,123.84 C2503.66,123.93 2504.00,135.87 2504.00,150.38 C2504.00,170.98 2503.71,176.99 2502.68,177.85 C2501.80,178.58 2493.33,178.92 2477.25,178.87 C2463.99,178.83 2452.66,179.09 2452.07,179.46 C2451.32,179.92 2451.00,205.60 2451.00,264.12 C2451.00,320.12 2450.65,348.78 2449.96,350.07 C2448.98,351.91 2447.57,352.00 2419.13,352.00 C2402.74,352.00 2389.03,351.70 2388.67,351.33 Z M1240.99,333.02 C1246.21,331.94 1252.06,330.32 1253.99,329.41 C1265.94,323.80 1269.07,321.80 1275.72,315.50 C1283.33,308.29 1289.51,300.76 1292.14,295.50 C1292.96,293.85 1294.11,291.60 1294.69,290.50 C1297.57,285.03 1300.00,278.71 1300.00,276.69 C1300.00,275.45 1300.90,271.87 1302.00,268.74 C1303.73,263.82 1304.00,260.49 1304.00,244.00 C1304.00,227.83 1303.68,223.79 1301.91,217.23 C1297.93,202.45 1297.25,200.71 1291.98,191.50 C1290.41,188.75 1288.66,185.51 1288.10,184.30 C1286.52,180.87 1270.75,165.37 1267.98,164.52 C1266.62,164.10 1264.77,163.12 1263.87,162.33 C1261.26,160.05 1254.80,156.85 1251.00,155.97 C1249.08,155.52 1245.70,154.47 1243.50,153.62 C1240.44,152.45 1235.14,152.08 1221.00,152.04 C1204.73,152.00 1201.71,152.26 1196.00,154.13 C1189.59,156.24 1182.89,159.00 1178.00,161.56 C1176.62,162.28 1173.92,163.66 1172.00,164.62 C1167.80,166.73 1152.60,181.70 1148.28,188.00 C1141.15,198.38 1136.19,210.82 1132.92,226.50 C1131.82,231.80 1131.88,253.32 1133.02,259.00 C1136.31,275.41 1135.84,273.97 1142.58,288.50 C1146.04,295.98 1154.01,306.10 1162.24,313.45 C1168.78,319.31 1170.73,320.63 1177.64,323.88 C1179.92,324.96 1182.08,326.32 1182.45,326.92 C1182.82,327.51 1184.12,328.00 1185.34,328.00 C1186.56,328.00 1188.55,328.70 1189.76,329.55 C1190.98,330.40 1196.12,331.76 1201.19,332.58 C1206.26,333.40 1210.62,334.28 1210.87,334.54 C1212.14,335.81 1232.43,334.78 1240.99,333.02 Z M1632.50,293.48 C1636.90,292.69 1642.21,292.03 1644.29,292.02 C1646.37,292.01 1649.84,291.10 1652.00,290.00 C1654.16,288.90 1656.76,288.00 1657.78,288.00 C1660.66,288.00 1678.66,278.62 1682.99,274.87 C1685.12,273.01 1688.54,270.16 1690.57,268.53 C1694.35,265.50 1705.93,250.97 1709.44,244.87 C1713.52,237.77 1720.00,221.49 1720.00,218.36 C1720.00,217.20 1720.75,214.28 1721.67,211.88 C1724.18,205.29 1724.23,166.42 1721.73,160.12 C1720.78,157.72 1720.00,154.44 1720.00,152.83 C1720.00,151.23 1719.10,148.16 1718.00,146.00 C1716.90,143.84 1715.99,141.27 1715.98,140.29 C1715.97,139.31 1715.08,137.38 1714.00,136.00 C1712.92,134.62 1712.03,132.56 1712.02,131.40 C1712.01,130.25 1711.10,128.50 1710.00,127.50 C1708.90,126.50 1708.00,125.33 1708.00,124.89 C1708.00,122.76 1701.38,114.48 1693.35,106.56 C1686.24,99.56 1684.86,98.41 1679.47,94.98 C1664.62,85.52 1657.14,82.56 1637.85,78.49 C1627.62,76.33 1554.20,76.08 1552.85,78.20 C1551.60,80.18 1551.77,290.71 1553.04,293.07 C1554.03,294.92 1555.47,295.00 1589.29,294.97 C1615.51,294.94 1626.54,294.56 1632.50,293.48 Z M1991.25,212.03 C1992.63,211.97 1992.02,208.71 1989.39,202.14 C1982.17,184.09 1970.13,174.36 1951.54,171.55 C1940.91,169.94 1922.86,171.32 1918.38,174.08 C1916.67,175.14 1914.37,176.00 1913.29,176.00 C1912.20,176.00 1910.50,176.90 1909.50,178.00 C1908.50,179.10 1907.19,180.00 1906.58,180.00 C1904.94,180.00 1892.00,191.94 1892.00,193.46 C1892.00,194.17 1891.34,195.30 1890.53,195.98 C1888.73,197.47 1884.00,207.59 1884.00,209.95 C1884.00,210.90 1884.32,211.98 1884.71,212.37 C1885.20,212.87 1979.76,212.57 1991.25,212.03 Z" fill="currentColor" fill-rule="evenodd"/></svg>